# xmcd
#
# Track frame offsets:
#	182
#	21772
#	39585
#	52470
#	79880
#	101787
#	122707
#	139017
#	154250
#	170605
#
# Disc length: 2549 seconds
#
# Revision: 0
# Processed by: cddbd v1.5.2PL0 Copyright (c) Steve Scherf et al.
# Submitted via: EasyCDDAExtractor 11.0.2.1
#
DISCID=8c09f30a
DTITLE=Lissette - Copacabana
DYEAR=1978
DGENRE=Latin
TTITLE0=Sola
TTITLE1=Yo Sin Ti
TTITLE2=Si Hay Amor... Volvera
TTITLE3=Si Señor Como No
TTITLE4=Copacabana
TTITLE5=Yo Quiero Un Poco Mas
TTITLE6=Despues
TTITLE7=El Cochecito
TTITLE8=Nada
TTITLE9=Alguien
EXTD=
EXTT0=
EXTT1=
EXTT2=
EXTT3=
EXTT4=
EXTT5=
EXTT6=
EXTT7=
EXTT8=
EXTT9=
PLAYORDER=
